<?xml version="1.0" encoding="UTF-8"?>
<svg id="Layer_1" xmlns="http://www.w3.org/2000/svg" version="1.1" xmlns:xlink="http://www.w3.org/1999/xlink" viewBox="0 0 3214.56 1412.49">
  <!-- Generator: Adobe Illustrator 30.1.0, SVG Export Plug-In . SVG Version: 2.1.1 Build 136)  -->
  <defs>
    <style>
      .st0 {
        fill: #ae76c7;
      }

      .st1 {
        fill: #4c1467;
      }

      .st2 {
        fill: #9f7cc5;
      }

      .st3 {
        fill: #b67cd0;
      }

      .st4 {
        fill: url(#linear-gradient2);
      }

      .st5 {
        fill: #914dae;
      }

      .st6 {
        fill: #843ca6;
      }

      .st7 {
        fill: #c2a7df;
      }

      .st8 {
        fill: #a985cf;
      }

      .st9 {
        fill: url(#linear-gradient10);
      }

      .st10 {
        fill: #b293d6;
      }

      .st11 {
        fill: url(#linear-gradient21);
      }

      .st12 {
        fill: #bea0dc;
      }

      .st13 {
        fill: #471422;
        fill-rule: evenodd;
      }

      .st14 {
        fill: #9251b1;
      }

      .st15 {
        fill: url(#linear-gradient1);
      }

      .st16 {
        fill: #3c0c59;
      }

      .st17 {
        fill: url(#linear-gradient9);
      }

      .st18 {
        fill: #9a73c5;
      }

      .st19 {
        fill: url(#linear-gradient18);
      }

      .st20 {
        fill: #bf9fdf;
      }

      .st21 {
        fill: url(#linear-gradient23);
      }

      .st22 {
        fill: url(#linear-gradient8);
      }

      .st23 {
        fill: url(#linear-gradient11);
      }

      .st24 {
        fill: #bea1de;
      }

      .st25 {
        fill: #be9dda;
      }

      .st26 {
        fill: #ebdff1;
      }

      .st27 {
        fill: #481166;
      }

      .st28 {
        fill: url(#linear-gradient16);
      }

      .st29 {
        fill: #5f1d7d;
      }

      .st30 {
        fill: #732b95;
      }

      .st31 {
        fill: url(#linear-gradient24);
      }

      .st32 {
        fill: #d9c3eb;
      }

      .st33 {
        fill: url(#linear-gradient22);
      }

      .st34 {
        fill: #330a50;
      }

      .st35 {
        fill: #531471;
      }

      .st36 {
        fill: #b795d6;
      }

      .st37 {
        fill: url(#linear-gradient19);
      }

      .st38 {
        fill: url(#linear-gradient12);
      }

      .st39 {
        fill: #ae8dd5;
      }

      .st40 {
        fill: #decdea;
      }

      .st41 {
        fill: #9c72cc;
      }

      .st42 {
        fill: #a681cd;
      }

      .st43 {
        fill: #bfadd3;
      }

      .st44 {
        fill: url(#linear-gradient7);
      }

      .st45 {
        fill: url(#linear-gradient20);
      }

      .st46 {
        fill: url(#linear-gradient4);
      }

      .st47 {
        fill: #4b0f6a;
      }

      .st48 {
        fill: #ba82d4;
      }

      .st49 {
        fill: #b494d9;
      }

      .st50 {
        fill: #7e38a0;
      }

      .st51 {
        fill: #af90d1;
      }

      .st52 {
        fill: url(#linear-gradient14);
      }

      .st53 {
        fill: #af70ca;
      }

      .st54 {
        fill: url(#linear-gradient5);
      }

      .st55 {
        fill: url(#linear-gradient3);
      }

      .st56 {
        fill: #c4a8e1;
      }

      .st57 {
        fill: url(#linear-gradient25);
      }

      .st58 {
        fill: #b69fcf;
      }

      .st59 {
        fill: #8861b5;
      }

      .st60 {
        fill: url(#linear-gradient15);
      }

      .st61 {
        fill: #3f0b5d;
      }

      .st62 {
        fill: url(#linear-gradient17);
      }

      .st63 {
        fill: #bd8ad3;
      }

      .st64 {
        fill: #ca9edc;
      }

      .st65 {
        fill: url(#linear-gradient6);
      }

      .st66 {
        fill: #904cb0;
      }

      .st67 {
        fill: #a57fcf;
      }

      .st68 {
        fill: #6a258e;
      }

      .st69 {
        fill: #541174;
      }

      .st70 {
        fill: #d3a6e6;
      }

      .st71 {
        fill: #decee9;
      }

      .st72 {
        fill: url(#linear-gradient13);
      }

      .st73 {
        fill: url(#linear-gradient);
      }

      .st74 {
        fill: #cfa1e4;
      }

      .st75 {
        fill: #530d74;
      }

      .st76 {
        fill: #6b268c;
      }
    </style>
    <linearGradient id="linear-gradient" x1="2022.44" y1="2276.16" x2="1991.72" y2="2331.16" gradientTransform="translate(-2536.78 -2378.26) scale(1.49)" gradientUnits="userSpaceOnUse">
      <stop offset="0" stop-color="#742a93"/>
      <stop offset="1" stop-color="#540e74"/>
    </linearGradient>
    <linearGradient id="linear-gradient1" x1="1779.61" y1="1694.57" x2="2111.19" y2="1860.99" gradientTransform="translate(-2536.78 -2378.26) scale(1.49)" gradientUnits="userSpaceOnUse">
      <stop offset="0" stop-color="#c18bd9"/>
      <stop offset=".11" stop-color="#dcb4ea"/>
      <stop offset=".2" stop-color="#d4a8e5"/>
      <stop offset="1" stop-color="#641b87"/>
    </linearGradient>
    <linearGradient id="linear-gradient2" x1="1864.46" y1="1640.02" x2="2071.96" y2="1875.69" gradientTransform="translate(-2536.78 -2378.26) scale(1.49)" gradientUnits="userSpaceOnUse">
      <stop offset="0" stop-color="#bf89d8"/>
      <stop offset=".5" stop-color="#7d359f"/>
      <stop offset="1" stop-color="#5c147e"/>
    </linearGradient>
    <linearGradient id="linear-gradient3" x1="1861.4" y1="1724.28" x2="2050.63" y2="1762.25" gradientTransform="translate(-2536.78 -2378.26) scale(1.49)" gradientUnits="userSpaceOnUse">
      <stop offset="0" stop-color="#9753b6"/>
      <stop offset="1" stop-color="#671d88"/>
    </linearGradient>
    <linearGradient id="linear-gradient4" x1="227.47" y1="861.59" x2="494.08" y2="1220.42" gradientUnits="userSpaceOnUse">
      <stop offset="0" stop-color="#d3bbe8"/>
      <stop offset="1" stop-color="#a47cd1"/>
    </linearGradient>
    <linearGradient id="linear-gradient5" x1="329.04" y1="732.88" x2="383.49" y2="1275.55" gradientUnits="userSpaceOnUse">
      <stop offset="0" stop-color="#e0d0ef"/>
      <stop offset="1" stop-color="#bfa2df"/>
    </linearGradient>
    <linearGradient id="linear-gradient6" x1="209.98" y1="38" x2="542.84" y2="412.01" gradientUnits="userSpaceOnUse">
      <stop offset="0" stop-color="#f3e8f8"/>
      <stop offset="1" stop-color="#c4a9e1"/>
    </linearGradient>
    <linearGradient id="linear-gradient7" x1="967.91" y1="472.7" x2="1146.47" y2="472.7" gradientUnits="userSpaceOnUse">
      <stop offset="0" stop-color="#dac6ec"/>
      <stop offset="1" stop-color="#9c72cc"/>
    </linearGradient>
    <linearGradient id="linear-gradient8" x1="1184.19" y1="485.75" x2="1308.58" y2="485.75" xlink:href="#linear-gradient7"/>
    <linearGradient id="linear-gradient9" x1="1349.51" y1="508.42" x2="1522.05" y2="508.42" xlink:href="#linear-gradient7"/>
    <linearGradient id="linear-gradient10" x1="1556.96" y1="554.56" x2="1776.05" y2="554.56" xlink:href="#linear-gradient7"/>
    <linearGradient id="linear-gradient11" x1="1814.97" y1="463.48" x2="2051.32" y2="463.48" xlink:href="#linear-gradient7"/>
    <linearGradient id="linear-gradient12" x1="2092.25" y1="508.42" x2="2280.85" y2="508.42" xlink:href="#linear-gradient7"/>
    <linearGradient id="linear-gradient13" x1="2318.96" y1="506.41" x2="2555.31" y2="506.41" xlink:href="#linear-gradient7"/>
    <linearGradient id="linear-gradient14" x1="2569.76" y1="556.57" x2="2794.87" y2="556.57" xlink:href="#linear-gradient7"/>
    <linearGradient id="linear-gradient15" x1="2816.53" y1="386.23" x2="2882.34" y2="386.23" xlink:href="#linear-gradient7"/>
    <linearGradient id="linear-gradient16" x1="2912.44" y1="508.62" x2="3057.7" y2="508.62" xlink:href="#linear-gradient7"/>
    <linearGradient id="linear-gradient17" x1="956.67" y1="954.23" x2="1186.6" y2="954.23" xlink:href="#linear-gradient7"/>
    <linearGradient id="linear-gradient18" x1="1217.49" y1="987.93" x2="1387.23" y2="987.93" xlink:href="#linear-gradient7"/>
    <linearGradient id="linear-gradient19" x1="1424.95" y1="989.94" x2="1597.49" y2="989.94" xlink:href="#linear-gradient7"/>
    <linearGradient id="linear-gradient20" x1="1647.25" y1="989.94" x2="1835.84" y2="989.94" xlink:href="#linear-gradient7"/>
    <linearGradient id="linear-gradient21" x1="1880.78" y1="990.14" x2="2026.04" y2="990.14" xlink:href="#linear-gradient7"/>
    <linearGradient id="linear-gradient22" x1="2062.55" y1="991.95" x2="2298.9" y2="991.95" xlink:href="#linear-gradient7"/>
    <linearGradient id="linear-gradient23" x1="2331" y1="987.93" x2="2500.74" y2="987.93" xlink:href="#linear-gradient7"/>
    <linearGradient id="linear-gradient24" x1="2538.45" y1="989.94" x2="2711" y2="989.94" xlink:href="#linear-gradient7"/>
    <linearGradient id="linear-gradient25" x1="2758.75" y1="990.14" x2="2904" y2="990.14" xlink:href="#linear-gradient7"/>
  </defs>
  <g id="Generative_Object">
    <g>
      <g>
        <path class="st75" d="M498.18,1155.17c.53,1.33-.35,4.51,1.22,5.88l82.18.77c17.04.16,34.01,10.76,35.27,28.73,1.22,17.43,1.29,34.4,1.38,51.03l.48,90.35-.06,46.49c-10.45.56-21.17.53-32.32-.15l-.75-54.95c-.09-6.72-7.74-8.05-12.82-8.04l-50.21.05-.5-48.83c-.1-9.99-10.3-10.57-16.58-10.54.53-3.75,5.88.86,8.08-3.88l-36.34-.3c-4.38,2.87-6.79,6.38-11.26,8.7-4.68-31.2-1.24-69.07-5.38-99.61-.29-2.11,1.52-3.61,1.69-5.59,11.95-.79,23.94-.07,35.89-.11Z"/>
        <path class="st63" d="M627.98,1236.61c-3.03,2.08-5.63,6.01-9.74,4.97-.09-16.63-.16-33.61-1.38-51.03-1.26-17.97-18.23-28.57-35.27-28.73l-82.18-.77c-1.57-1.37-.69-4.55-1.22-5.88l129.81-.35v81.79Z"/>
        <path class="st64" d="M617.28,1136.98l-.36-49.19c-.1-13.55-10.46-23.51-23.27-25.74-6.33-1.1-11.75-.86-18.11-.81l-76,.6c-2.2.02-2.87-2.61-3.08-3.99l44.89-.69c9.16-.14,17.7.21,26.91.05l58.13-1.01-.29,80.29c-1.66,2.66-6.66.44-8.83.49Z"/>
        <path class="st0" d="M627.93,1331.82c-2.98-.74-6.14.28-9.21.11l-.48-90.35c4.11,1.03,6.71-2.89,9.74-4.97l-.05,95.22Z"/>
        <path class="st5" d="M627.93,1331.82l.38,46.34c-3.93,1.53-6.87.1-9.64.25l.06-46.49c3.06.18,6.23-.85,9.21-.11Z"/>
        <g>
          <path class="st73" d="M453.43,704.96c-1.15,4.84-2.61,10.43-2.72,16.15l-1.31,65.8-.06,221.6,1.37,48.91,45.76.43c.21,1.38.88,4.01,3.08,3.99l76-.6c6.36-.05,11.78-.29,18.11.81,12.8,2.23,23.17,12.19,23.27,25.74l.36,49.19c-41.27.93-123.11.3-162.61.43-9.45,6.39-1.49,11.3-3.79,17.32,4.39.06,7.89.78,11.4.55-.17,1.98-1.97,3.48-1.69,5.59-2.65,1.05-6.22-.69-8.94,1.2-.8,1.48-.67,4.16-1.55,4.62s-3.65,1.75-3.75.25l-2.13-30.97c-1.32-19.2-2.16-34.45-3.43-52.44l-1.32-18.64c-.39-5.55-1.03-11.29-1.14-17.15l-.85-46.5-1.02-59.62-.22-7.26c-.14-4.55.4-7.86.38-11.99l-.22-50.72c-.05-11.05-.03-17.09,0-27.47l.29-129.03c0-3.23.24-6.33,2.56-8.19,1.34-1.08,2.09-2.22,5.71-1.43-1.57-5.06-1.69-8.3,2.63-10.29,3.3,3.28,2.48,7.73,5.82,9.72Z"/>
          <path class="st61" d="M457.48,1110.22c2.63,8.51-.07,17.3,1.38,25.31l-7.66.44-.12-55.26c4.65-.07,6.06,28.41,6.4,29.51Z"/>
        </g>
      </g>
      <g>
        <path class="st29" d="M347.89,666.31c2.98,5.01,2.51,4.8,4.36,13.21,1.38,1.28,4.49.47,6.08,1.29.69,5.06.47,10.38-3.3,14.75,2.31.47,3.52-1.68,4.76-.22l-.09,477.31c-.12-.18-1.36-.12-1.64.42l.27,164.82,1.02,43.87c-4.04-1.02-6.84.06-8.99.38-.78.12-1-2.27-1.96-2.38-.71-.08-1.65.9-2.82.86-1.38-.05-.59-2.15-1.43-4.09-1.91,1.9-8.12,2.24-8.44-1.02-.6-6.08,1.78-12.38-.82-18.26-1.58,4.87-.03,8.77-.8,13.5-1.07-.53-1.94-2.12-3.08-.91-.57.61-1.23,1.65-1.39,2.51-17.1-16.83-19.12-43.39-18.33-68.7l4.16-133.74c2.12.32,3.36-1.17,4.44-2.15,1.93-1.76,3.24-28.61,2.92-32.86-1.04-13.7.68-27.14,1.58-41.26.67-10.44-1.9-20.32,1.1-30.62,2.12-7.28.37-24.58.46-34l.69-74.86c2.66-.64,4.34.84,4.74-1.49l.88-5.07,1.11-53.74c2.21,9.64-.01,19.49,1.3,29.94,1.14,9.12,1.5,17.51,1.49,27.09l-.24,246.8c0,2.01,1.04,3.33,1.95,3.64.5.17,2.25-.29,2.25-2.15l.22-299.13-.08-196.6c0-2.19-.47-3.35-2.24-3.29-.79.03-1.53.57-1.98,1.42-1.04-.21-3.33-.34-4.85.68l-14.18,9.51c-3.21-6.9-8.92-12.98-15.25-17.26-.38-1.78-2.15-2.92-1.9-4.91,2.77-15.09,35.41-21.43,48.06-23.31Z"/>
        <path class="st14" d="M336,701.6l.41,196.82c-1.12,2.76,2.59,2.39,3.9,1.64l-.22,299.13c0,1.86-1.75,2.32-2.25,2.15-.9-.31-1.95-1.63-1.95-3.64l.24-246.8c0-9.58-.35-17.97-1.49-27.09-1.31-10.45.91-20.3-1.3-29.94l-1.11,53.74-.88,5.07c-.4,2.34-2.08.85-4.74,1.49l-.69,74.86c-.09,9.42,1.66,26.72-.46,34-2.99,10.3-.43,20.18-1.1,30.62-.9,14.12-2.62,27.56-1.58,41.26.32,4.25-.99,31.1-2.92,32.86-1.08.98-2.32,2.47-4.44,2.15,2.96-95.14,6.41-190.2,4.93-285.86l-1.55-99.92-2.76-66c-.27-6.43-12.27-13.87-14.32-23.6,6.33,4.27,12.04,10.36,15.25,17.26l14.18-9.51c1.52-1.02,3.81-.89,4.85-.68Z"/>
        <path class="st30" d="M470.07,619.48c-3.9,3.79-5.74,6.67-10.91,9.11-30.31-24.31-77.88-23.07-113.47-14.1-5.97-7.5-10.88-7.32-5.91-10.94.99-.72,3.55.37,4.72,1.38-1.86-4.72.58-8.95.98-12.85s-3.03-7.74-1.21-10.82c34.51-8.76,87.57-7.48,117.21,15.58,7.77,6.04,9.4,13.77,8.59,22.65Z"/>
        <path class="st48" d="M443.14,638.95c13.71,3.18,41.37,11.37,34.44,31.63-2.78,8.12-6.25,15.01-10.92,20.86-2.72-6.22,2.96-10.1,5.21-15.19,2.23-5.04-3.88-11.69-7.94-12.89-13.04-14.28-58.13-19.1-78.97-17.92-7.07.4-.18,16.64-2.86,17.29-11.41-.49-23.04,1.93-34.21,3.59-12.65,1.88-45.3,8.22-48.06,23.31-2.88-1.2-3.46-5.07-4.39-7.36,3.38-8.04-2.72-11.25,10-19.48,2.57-1.66,1.31-3.49,1.1-5.58-.22-2.2-.96-3.58-2.73-3.19-.59.13-.87,1.82-2.43,1.61-2.58-.34-.2-1.68.07-2.46.34-.98,2.66.07,3.13-.5,4.95-6.08,12.3-9.34,20.79-10.78-.62-1.36-1.61-2.25-2.58-2.89.58-.05,1.13-.14.84-.94,39.89-6.84,79.87-8.28,119.52.91Z"/>
        <path class="st47" d="M459.17,628.59c-5.47,2.58-11.12,6.89-16.03,10.36-39.64-9.19-79.63-7.74-119.52-.91-1.2-1.35-3.78-4.23-5.77-4.89.2-.95-1.36-2.93-.58-4.41,9.39-5.43,18.57-11.78,28.42-14.26,35.59-8.96,83.17-10.21,113.47,14.1Z"/>
        <path class="st74" d="M425.4,570.76c5.82,1.07,11.95,5.04,17.69,2.79,1.72-.27,1.36,1.5,1.56,3.03,9.34,3,17.87,7.23,24.86,13.49,9.87,8.85,9,21.21.57,29.41.81-8.88-.82-16.6-8.59-22.65-29.64-23.06-82.69-24.34-117.21-15.58-18.74,4.76-46.12,13.3-47.2,36.98-3.22-4.7-7.7-8-6.28-15.73,3.98-21.75,36.78-23.4,31.67-29.48-.48-.57-.23-1.28,1.24-.94.25.8.04,1.87.48,2.84l20.84-4.8c26.25-6.05,53.71-4.29,80.38.63Z"/>
        <path class="st66" d="M344.28,581.26c-1.82,3.07,1.62,6.84,1.21,10.82s-2.84,8.12-.98,12.85c-1.18-1.01-3.73-2.1-4.72-1.38-4.97,3.62-.06,3.44,5.91,10.94-9.85,2.48-19.03,8.83-28.42,14.26-.79,1.48.78,3.46.58,4.41-8.58-2.86-15.84-7.71-20.78-14.92,1.08-23.68,28.46-32.22,47.2-36.98Z"/>
        <path class="st70" d="M295.43,682.26c-5.75-6.84-9.43-18.89-3.32-27.02,7.58-10.08,20.29-11.98,30.67-16.26.97.64,1.96,1.52,2.58,2.89-8.49,1.44-15.84,4.69-20.79,10.78-.46.57-2.79-.48-3.13.5-.27.79-2.65,2.12-.07,2.46,1.55.21,1.84-1.48,2.43-1.61,1.77-.39,2.5.99,2.73,3.19s1.47,3.92-1.1,5.58c-12.72,8.24-6.62,11.44-10,19.48Z"/>
        <path class="st16" d="M382.1,662.72c22.42.96,46.71,1.14,66.76,10.51-1.15,2.18-1.56,4.63-1.22,7.59.75,6.55-4.98,7.72-9.38,9.04-3.51,1.45-1.72,7.94-3.14,11.38l-8.9-2.54v190.67s-.14,113.6-.14,113.6l.53,370.06c-4.81,4.14-9.89,7.2-14.96,3.44l.32-682.82c-7.66-1.45-13.78-1.22-19.49-3.17-.42-.77-.89-3.64-2.38-2.17-.43.42-1.01,2.08-2.6,1.84-.76-1.73,1.33-4.04-1.15-3.42-.01-2.49.5-5.5-.43-8.25-.54-1.6-2.94-.47-3.82-.62-4.19-.7-12.41-.38-16.78,1.36-1.98.79-4.93-.16-7,1.58-1.59-.83-4.7-.01-6.08-1.29-1.85-8.41-1.38-8.19-4.36-13.21,11.17-1.66,22.8-4.08,34.21-3.59Z"/>
        <path class="st35" d="M365.32,679.23c-.69,3.79-.56,7.7.14,12.49l16.39-.64.42,249.11c.19,111.39-2.25,224.71-1.5,337.73.23,34.51,1.92,67.52.03,102.11-.27,4.89-14.61,4.22-15.55.14-1.55-4.7.76-42.65-.96-44.59-1.15-1.31-1.58,1.17-4.39,1.35l-.33-134.47c1.73.24,3.52,1.07,5.28-.73l.11-505.56c0-2.63-1.92-3.37-3.05-3.08-.85.22-2.17,1.09-2.14,2.26-1.24-1.46-2.44.69-4.76.22,3.77-4.38,3.99-9.69,3.3-14.75,2.07-1.73,5.03-.79,7-1.58Z"/>
        <path class="st50" d="M359.57,1202.45l.12-29.8.09-477.31c-.03-1.17,1.3-2.04,2.14-2.26,1.13-.29,3.05.45,3.05,3.08l-.11,505.56c-1.76,1.8-3.56.98-5.28.73Z"/>
        <g>
          <path class="st27" d="M466.66,691.44c-3.83,4.8-7.42,10.5-13.23,13.52-3.34-1.99-2.52-6.43-5.82-9.72-4.32,2-4.2,5.23-2.63,10.29-3.62-.79-4.36.35-5.71,1.43-2.32,1.86-2.56,4.96-2.56,8.19l-.29,129.03c-.02,10.38-.04,16.42,0,27.47l.22,50.72c.02,4.13-.52,7.44-.38,11.99l.22,7.26,1.02,59.62.85,46.5c.11,5.86.75,11.6,1.14,17.15l1.32,18.64c1.27,18,2.11,33.24,3.43,52.44l2.13,30.97c.1,1.5,2.88.21,3.75-.25s.75-3.14,1.55-4.62c2.72-1.89,6.28-.15,8.94-1.2,4.14,30.54.7,68.41,5.38,99.61,4.47-2.32,6.87-5.83,11.26-8.7l36.34.3c-2.21,4.74-7.55.12-8.08,3.88l-26.48.12c-7.28.03-10.77,5.41-10.79,12.06l-.16,69.8c-.03,11.15-3.68,19.76-12.85,25.9-29.77,19.95-65.92,27.55-101.34,21.73-11.38-1.87-17.7-6.75-24.26-13.21.16-.87.82-1.91,1.39-2.51,1.14-1.21,2,.38,3.08.91.77-4.73-.77-8.63.8-13.5,2.6,5.88.22,12.18.82,18.26.32,3.27,6.53,2.93,8.44,1.02.84,1.94.05,4.04,1.43,4.09,1.18.04,2.12-.94,2.82-.86.96.11,1.17,2.49,1.96,2.38,2.16-.32,4.95-1.41,8.99-.38l-1.02-43.87-.27-164.82c.28-.54,1.51-.6,1.64-.42l-.12,29.8.33,134.47c2.81-.17,3.24-2.66,4.39-1.35,1.72,1.95-.59,39.89.96,44.59.94,4.08,15.29,4.76,15.55-.14,1.88-34.59.2-67.6-.03-102.11-.76-113.02,1.68-226.34,1.5-337.73l2.45,341.34c4.19-168.39,2.95-334.4,2.11-500.97l-.47-93.83c2.48-.62.39,1.69,1.15,3.42,1.59.24,2.17-1.42,2.6-1.84,1.49-1.47,1.96,1.4,2.38,2.17,5.71,1.95,11.83,1.72,19.49,3.17l-.32,682.82c5.07,3.76,10.14.7,14.96-3.44l-.53-370.06.15-113.6v-190.67s8.9,2.54,8.9,2.54c1.42-3.44-.37-9.93,3.14-11.38,4.4-1.32,10.13-2.48,9.38-9.04-.34-2.96.06-5.4,1.22-7.59,7.79,2.02,7.67-3.35,15.07-9.87,4.06,1.19,10.17,7.85,7.94,12.89-2.25,5.09-7.93,8.97-5.21,15.19Z"/>
          <path class="st34" d="M441.61,1208.12c-1.28,4.12-1.19,6.79-.7,9.82,2.55,15.81-1.51,31.91,2.61,47.49,2.04,12.35,1.63,97.68-3.32,103.2-1.53,1.71-4.65,2.31-8.95,3.08l.08-291.3c0-29.47-1.64-56.9,1.13-86.35,4.34,31.88,1.89,62.07,2.5,93.62l1.52,78.43c.09,4.8,1.22,9.8,1.54,14.35l1.21,17.63c.17,2.5,3.95,4.99,2.38,10.03Z"/>
          <path class="st76" d="M386.35,686.73l.47,93.83c.84,166.56,2.09,332.57-2.11,500.97l-2.45-341.34-.42-249.11c0-4.13,1.14-8.86.25-13.22.88.15,3.28-.98,3.82.62.93,2.74.41,5.75.43,8.25Z"/>
        </g>
        <path class="st68" d="M463.93,663.36c-7.41,6.52-7.28,11.9-15.07,9.87-20.05-9.37-44.34-9.55-66.76-10.51,2.68-.64-4.21-16.88,2.86-17.29,20.84-1.18,65.94,3.64,78.97,17.92Z"/>
        <path class="st53" d="M340.3,900.06c-1.31.76-5.02,1.12-3.9-1.64l-.41-196.82c.45-.85,1.19-1.4,1.98-1.42,1.77-.06,2.24,1.1,2.24,3.29l.08,196.6Z"/>
        <path class="st1" d="M382.1,677.87c.88,4.35-.26,9.08-.25,13.22l-16.39.64c-.69-4.8-.83-8.71-.14-12.49,4.37-1.75,12.59-2.06,16.78-1.36Z"/>
      </g>
    </g>
    <g>
      <path class="st15" d="M710,192.02c-1.75-.12-1.82,1.13-1.81,2.38.02,3.65,3.45-.03,2.23,21.61-2.67,47.38-28.6,89.2-62.83,121.15-44.97,41.99-94.82,64.03-149.88,88.65-36.83,16.47-70.54,37.89-70.84,83.83l-.36,56.53c-1.73.42-1.86,2.87-3.67,1.83-1.99-1.14-1.48-2.84-1.84-4.9-8.58-49.46-18.49-107.22,35.53-136.81,17.95-9.83,36.01-16.05,55.05-23.93,29.86-12.36,57.75-25.84,83.69-44.44,43.12-30.92,79.57-72.79,83.84-127.31,1.62-20.7-2.48-39.23-10.67-57.58-32.09-71.91-126.67-109.76-200.15-119.8-93.86-12.83-201.56-1.88-283.74,47.09-67.71,40.35-116.17,114.42-75.07,191.87,27.92,52.61,81.4,83.45,134.24,106.59l58.2,25.48c16.34,7.15,29.48,19.13,37.43,35.04,16.62,33.24,9.99,76.15,5.66,110.83l-20.84,4.8c-.44-.97-.24-2.04-.48-2.84-.39-24.46.73-49.15-.94-74.23-.52-7.86-8.42-14.64-15.23-18.15l-60.85-31.36c-52.13-26.87-104.59-54.29-145.53-97.78-39.24-41.68-61.05-95.09-46.17-152.22,17.89-68.72,71.97-120.32,136.89-146,32.41-12.82,65.41-20.44,100.75-23.57,52.98-4.69,104.75-5.02,157.79-.81,107.42,8.53,225.9,52.38,259.6,164.05Z"/>
      <path class="st69" d="M443.09,573.55c-5.75,2.25-11.88-1.72-17.69-2.79,1.76-1.24,1.11-2.88,1.12-4.6l.36-56.53c.3-45.94,34.01-67.37,70.84-83.83,55.06-24.62,104.91-46.66,149.88-88.65,34.23-31.95,60.15-73.77,62.83-121.15,1.22-21.63-2.21-17.96-2.23-21.61,0-1.25.06-2.5,1.81-2.38,9.87,32.69,9.1,67.48-5.6,100.47-32.53,73-105.98,114.78-173.83,149.89l-72.65,37.59c-8.23,4.26-14.52,11.43-14.55,20.63l-.28,72.95Z"/>
      <g>
        <path class="st4" d="M426.52,566.17c-.01,1.72.64,3.35-1.12,4.6-26.67-4.92-54.13-6.68-80.38-.63,4.34-34.68,10.97-77.59-5.66-110.83-7.96-15.91-21.09-27.88-37.43-35.04l-58.2-25.48c-52.84-23.13-106.32-53.98-134.24-106.59-41.11-77.45,7.36-151.52,75.07-191.87,82.18-48.98,189.88-59.92,283.74-47.09,73.48,10.04,168.06,47.89,200.15,119.8,8.19,18.35,12.29,36.88,10.67,57.58-4.27,54.52-40.72,96.39-83.84,127.31-25.94,18.6-53.83,32.09-83.69,44.44-19.04,7.88-37.1,14.1-55.05,23.93-54.02,29.59-44.11,87.35-35.53,136.81.36,2.06-.14,3.76,1.84,4.9,1.81,1.04,1.94-1.41,3.67-1.83Z"/>
        <path class="st3" d="M547.11,139.96c-5.16.52-8.04,5.61-12.95,7-50.42-56.87-145.3-62.49-214.26-43.81-29.17,7.9-55.36,21.36-77.87,41.23-18.17,16.04-29.74,35.95-34.85,59.71-8.78,40.79-2.46,87.8,25.31,119.73.83.96,2.41,1.42,2.05-.23,13.02,15.19,30.89,25.4,50.18,31.65,20.05,6.5,40.16,7.96,61.42,8.91,35.87,1.6,85.89,1.4,119.29-5.03-.55,3.16-1.78,7.44-2.96,10.68-.23.62-2.8-.84-3.06.3-.15.65-.25,1.43-.16,2.3-24.89,2.9-49.88,2.88-75.83,2.93-49.87.11-100.79.39-143.09-28.28-39.23-26.6-60.05-69.11-58.27-116.27,2.62-69.46,53.58-119.69,118.18-139.53,55.31-16.98,112.94-16.23,167.88-.84,32.24,9.03,57.69,26.73,78.98,49.55Z"/>
        <path class="st6" d="M547.11,139.96c24.32,26.07,40.15,58.35,39.55,95.5-.69,43.35-18.91,84.53-54.06,110.31-21.88,16.05-47.54,22.83-73.35,26.63-.08-.87.01-1.65.16-2.3.26-1.13,2.83.33,3.06-.3,1.18-3.24,2.41-7.52,2.96-10.68,16.59-3.19,32.35-8.99,47.37-18.12,10.57-6.42,16.62-16.5,25.49-23.81,9.42-7.75,15.85-18.11,19.92-31.23,14.24-45.95,7.57-103.33-24.04-139,4.9-1.39,7.79-6.48,12.95-7Z"/>
        <path class="st55" d="M534.16,146.96c31.62,35.67,38.28,93.05,24.04,139-4.07,13.12-10.5,23.48-19.92,31.23,24.51-40.17,18-86.57-14.01-121.65-16.6-18.19-36.66-31.55-60-41.02-53.29-21.63-113.49-21.01-166.13,1.67-41.36,17.82-79.26,54.27-83.76,101.58-2.31,24.3,4.82,47.91,20.16,65.82.37,1.65-1.21,1.18-2.05.23-27.78-31.93-34.09-78.93-25.31-119.73,5.11-23.76,16.68-43.67,34.85-59.71,22.51-19.87,48.7-33.33,77.87-41.23,68.95-18.68,163.84-13.06,214.26,43.81Z"/>
      </g>
    </g>
  </g>
  <g id="Generative_Object1" data-name="Generative_Object">
    <g>
      <g>
        <path class="st39" d="M453.31,716.72l-1.16,40.33-3.06,166.68c1.3-16.11-5.44,28.66-4.07,13.9l-4.8,51.92c-1.51,16.38-.38,32.01-1.51,47.5-.14-.16-1.51-.14-1.51.38l-.45,99.3c-.03,7.31-1.64,13.77-.43,22l-28.54,4.52-1.84-60.73c-1.52-50.18-1.42-99.24-.4-148.43,3.65-.51,17.95,4.44,21.54,6.49l4.23-249.75c5.99.33,12.78-1.8,19.19-2.31,1.04,3.58-.1,7.59,2.82,8.21Z"/>
        <path class="st41" d="M420.56,1382.66c-22.46,5.33-46.7,6.53-70.28.44-4.6-1.19-9.01-2.85-12.61-5.27.97-3.36.94-8.85-1.67-11.7-4.21-4.61-4.02-9.89-5.7-14.66,46.91-9.7,71.61-30.93,81.09-79.46,1.77-9.07.98-19.19.46-29.33l-4.07-79.43,28.54-4.52c-1.21-8.23.4-14.68.43-22l.45-99.3c0-.52,1.37-.54,1.51-.38-1.02,13.99-.1,28.5.39,42.56-.2-5.85.78,25.29.99,14.67-1.07,55.04,1.92,109.34,8.18,164.62,3.33,29.38,3.9,85.51-22.35,102.02l-11.24,7.07-6.69,5.04c-2.36,1.78-7.94-.3-9.3,3.52,2.84,1.26,4.56-1.71,6.19-.76.83.48,1.54,1.34,1.98,2.07-3.75,0-12.65,1.24-11.74,3.27.72,1.61-.39,2.24.24,2.59,4.85,2.7,26.63-5.72,25.21-1.05Z"/>
        <path class="st56" d="M332.5,718.44c3.48,40.78,2.43,82.18,2.66,125.03l2.01,370.77c-2.38,1.2-2.39,6.5,0,7.7l-.19,31.19c-.08,13.6-2.6,50.96,2.14,59.53,1.65,2.98,21.43-12.16,19.18-10.26,6.46.84-11.55,27.12-16.74,28.19-5.39,1.12-8.6,6.6-13.43,7.14-4.08-18.95-4.56-38.82-4.49-59.31l.34-98.38.12-132.46c0-3.29-.58-6.6-3.82-6.45l1.16-68.45c1.46-86.01-2.64-171.09-6.67-256.23,5.94.66,11.73,2.28,17.73,1.99Z"/>
        <path class="st67" d="M462.47,1055.29c-.92,7.37.61,46.34,11.8,45.95.29,1.18-1.07,1.68-2.04,1.45-.64-.15-1.11-1.29-2.15-1.18-9.61.95,8.92,32.77,7.72,32.53,7.98,1.54,27.85-.23,39.06,1.11,3.95.47,6.87.31,11.15.27l33.22-.36c2.63-.03,5.91-.23,7.01,2.36l-113.65.37c-1.01,5.94-.47,11.3.08,16.57.1.98.13,2.38.15,3.56.5,32.24,3.78,64.44,7.77,96.45.06.5-.2,1.43.48,1.69l2.51.99c3.31,1.3,6.17-.09,8.49,2.15-1.16,4.48.2,9.52-.65,14.83-2.85,17.86-2.14,35.67-3.43,53.18-2.2,29.88-22.59,49.08-49.44,55.45,1.42-4.67-20.36,3.76-25.21,1.05-.63-.35.48-.98-.24-2.59-.91-2.03,7.99-3.26,11.74-3.27-.44-.73-1.15-1.59-1.98-2.07-1.63-.95-3.35,2.03-6.19.76,1.35-3.83,6.94-1.75,9.3-3.52l6.69-5.04,11.24-7.07c26.26-16.51,25.68-72.64,22.35-102.02-6.26-55.28-9.25-109.58-8.18-164.62-.21,10.62-1.19-20.52-.99-14.67-.49-14.06-1.41-28.58-.39-42.56,1.13-15.49,0-31.12,1.51-47.5l4.8-51.92c-1.36,14.76,5.37-30.01,4.07-13.9l1.45,130.59c5.04.74,8.26,1.14,11.94.98Z"/>
        <path class="st40" d="M441.44,639.12c1.21-.84,1.7,2.05,2.74,1.92,14.8-1.85,27.11,7.4,28.65,20.73-9.85,10.63-24.88,18.45-40.4,18.48-2.55,0-4.59,3.48-7.78.99-16.9,6.32-20.1,1.69-32.64,2.32-3.28,1.48-7.63-.5-11.87-.38-1.54.04-2.52,2.62-3.34,2.46l-5.16-1c-2.62-.51-6.97,1.65-10.49,1.83-18.94.98-37.13.47-55.53,2.86-1.16.15-2.75.73-2.51,1.69-15.32-7.79-11.36-32.03-8.32-36.39,6.74-9.67,17.53-13.94,28.72-12.76.56-1.45,0-3.43,1.61-2.8.24.73-.39,3.02,1.52,3.02l111.82-.11c2.28,0,3.22-1.52,2.98-2.85Z"/>
        <path class="st58" d="M453.31,716.72c-2.92-.62-1.78-4.63-2.82-8.21-6.4.51-13.2,2.64-19.19,2.31-20.67-1.15-41.9-.68-62.99.11l-33.71,1.28c-.8,2.6-2.28,4.2-2.1,6.24-5.99.29-11.79-1.33-17.73-1.99-.31-6.53-2.6-12.62-1.09-20.6-5.55.27-7.69-3.38-10.58-4.85-.24-.96,1.35-1.54,2.51-1.69,18.41-2.38,36.59-1.87,55.53-2.86,3.52-.18,7.87-2.34,10.49-1.83l5.16,1c.82.16,1.81-2.42,3.34-2.46,4.25-.12,8.59,1.86,11.87.38,12.55-.63,15.74,4.01,32.64-2.32,3.18,2.49,5.23-.99,7.78-.99,15.52-.03,30.56-7.84,40.4-18.48.54,4.67,2.11,8.79.76,14.88-2.19,9.92-9.34,17.88-19.93,19.55l-.36,20.53Z"/>
        <path class="st71" d="M473.43,599.22c-17.57,11.45-11.07,11.27-31.04,16.68-12.89,3.5-26.33,5.23-40.49,5.06-4.31-.05-9.26,1.51-14.04,1.69l-74.44,2.83c-3.67.14-7.47.31-8.96,3.2-10.6-4.39-14.35-16.45-10.57-26.78,5.4-2.96,10.94,8.63,25.2,7.79,1.65-3.4,1.39-.62,1.37,2.16,5.89-.55,9.97-1.05,15.37-1.62l11.8-1.23c7.88-.82,16.04-1.43,23.74-3.5,5.29-1.42,9.93-5.33,14.39-5.3,3.8.03,5.95-1.39,8.87-3.39,3.28-2.25,7.82-2.24,8.8-7.12.77,2.24,1.94,3.11,2.89,2.83.51-.15.54-.86,2.21-1.47,10.99-19.93,20.25-6.75,28.53-13.12,1.31-1.01,3.31-.08,4.93-.54.87-.25,1.01-1.06,1.28-2.31,1.52-.33.95,1.11,1.75,3.19,14.2-2.85,27.01,7.39,28.41,20.92Z"/>
        <path class="st20" d="M328.13,1337.74c.96,4.46.53,9.08,2.17,13.72s1.49,10.05,5.7,14.66c2.6,2.85,2.64,8.34,1.67,11.7-22.75-15.31-29.62-43.66-28.42-71.29l9.63-221.58,1.41-43.81c3.24-.15,3.82,3.16,3.82,6.45l-.12,132.46-.34,98.38c-.07,20.5.4,40.36,4.49,59.31Z"/>
        <path class="st26" d="M405.5,577.76l31.55.2c-8.27,6.37-17.53-6.81-28.53,13.12-1.67.61-1.71,1.32-2.21,1.47-.96.28-2.13-.59-2.89-2.83-.98,4.87-5.52,4.87-8.8,7.12-2.92,2-5.07,3.42-8.87,3.39-4.46-.03-9.1,3.88-14.39,5.3-7.69,2.07-15.86,2.68-23.74,3.5l-11.8,1.23c-5.4.56-9.48,1.07-15.37,1.62.02-2.78.28-5.55-1.37-2.16-14.26.84-19.8-10.76-25.2-7.79,7.49-20.46,6.65-16.37,29.65-24.11l81.96-.04Z"/>
        <path class="st43" d="M473.43,599.22c.33,3.18.76,6.27.57,10.17-.76,15.07-12.77,25.81-28.05,23.82-2.43-.32-4.72.64-4.5,2.79-15.45-1.03-31.15-.21-47.59-.32l-64.27-.42c-1.21,0-1.67-3.32-2.75-1.35-.25.45-.16,1.57-1.43,1.01-2.34-1.05-5.87-2.16-8.78-1.59-6.08,1.19-8.79-3.24-12.15-4.63,1.49-2.89,5.29-3.06,8.96-3.2l74.44-2.83c4.79-.18,9.73-1.74,14.04-1.69,14.16.17,27.59-1.56,40.49-5.06,19.96-5.42,13.47-5.23,31.04-16.68Z"/>
        <path class="st51" d="M441.44,636c-.17,1.04.34,2.08,0,3.11.24,1.34-.7,2.85-2.98,2.85l-111.82.11c-1.91,0-1.28-2.28-1.52-3.02-.44-1.39.37-2.75.28-4.15,1.26.57,1.18-.55,1.43-1.01,1.08-1.97,1.55,1.35,2.75,1.35l64.27.42c16.44.11,32.14-.71,47.59.32Z"/>
        <path class="st46" d="M377.51,724.17c10.38,7.04,23.2,15.73,28.98,28.28,2.95,34.51,1.8,68.11,1.09,102.78l-2.05,98.85c-1.02,49.19-1.12,98.26.4,148.43l1.84,60.73,4.07,79.43c.52,10.14,1.31,20.26-.46,29.33-9.47,48.53-34.18,69.76-81.09,79.46-1.64-4.65-1.21-9.26-2.17-13.72,4.83-.54,8.04-6.02,13.43-7.14,5.19-1.08,23.2-27.36,16.74-28.19,11.05-9.36,10.29-62.77,9.68-79.16l-5.12-137.2c-4.1-109.88,2.23-253.72,6.95-365.55,2.68,2.25,5.98,2.52,7.69,3.68Z"/>
        <path class="st7" d="M431.3,710.82l-4.23,249.75c-3.59-2.05-17.89-6.99-21.54-6.49l2.05-98.85c.72-34.66,1.87-68.27-1.09-102.78-5.79-12.56-18.6-21.25-28.98-28.28-1.15-1.05-1.41-4.39-2.84-4.16-7.21,1.16-5.76-4.96-6.36-9.09,21.09-.8,42.32-1.26,62.99-.11Z"/>
        <path class="st54" d="M368.31,710.93c.6,4.12-.85,10.25,6.36,9.09,1.43-.23,1.69,3.1,2.84,4.16-1.71-1.16-5.01-1.43-7.69-3.68-4.73,111.83-11.05,255.67-6.95,365.55l5.12,137.2c.61,16.39,1.36,69.8-9.68,79.16,2.24-1.9-17.53,13.25-19.18,10.26-4.74-8.56-2.22-45.93-2.14-59.53l.19-31.19v-7.7s-2.01-370.77-2.01-370.77c-.23-42.85.82-84.25-2.66-125.03-.17-2.04,1.3-3.64,2.1-6.24l33.71-1.28Z"/>
        <path class="st49" d="M337.17,1221.95c-2.39-1.2-2.38-6.5,0-7.7v7.7Z"/>
      </g>
      <g>
        <path class="st8" d="M484.49,1055.36c-1.46,2.81-5.37.75-7.33,3.38,22.85,2.54,35.35,3.55,58.2,4.23l61.03,1.84c14.87.45,25.53,9.06,25.46,24.6-.04,9.53.45,19.21,2.13,28.24,1.58-5.05.88-9.34,1.55-13.65,1.63,1.06-.14,3.76,2.04,3.23-.16,9.41.98,19.07,0,29.82-20.25,1.29-39.86.32-59.35.39-1.1-2.59-4.38-2.39-7.01-2.36l-33.22.36c-4.27.05-7.2.21-11.15-.27-11.22-1.34-31.08.43-39.06-1.11,1.2.23-17.33-31.59-7.72-32.53,1.05-.1,1.52,1.03,2.15,1.18.97.23,2.33-.27,2.04-1.45.49-1.8,3.19,4.06,3.1.29-.03-1.16-.58-1.92-1.08-2.05-1.44-.37-1.25,1.73-2.02,1.76-11.19.39-12.72-38.58-11.8-45.95,7.33-.32,14.7-.74,22.02.06Z"/>
        <path class="st18" d="M472.76,1154.13c-4.02,9.15,28.38,2.97,25.53,8.01-6.6.91-17.66-2.73-25.7-1.02,3.97,23.77-4.54,39.43,16.41,56.52l14.99,12.23c26,21.21,37.63,31.91,46.74,66.34l3.44,13.02c.93,3.51,6.88,3.31,9.29,3.06,23.45-2.43,22.1,3.76,22.33,3.85,22.2,8.77,17.33,53.84,22.56,56.25.33.15,17.46,1.79,16.85-1.3-.68-3.43.37-7.65-.72-10.48s-2.04-4.31-2.29-7.72l-2.69-36.58-.92-31.92c-.23-7.89-1.51-14.12.38-20.85-.34,8.01,1.55,15.4,2.15,26.08l1.64,29.37.96,22.27c1.56-1.7,1.88-4.55,1.34-8.43.67-1.81,1.16,1.03,2.55.88-.02,13.83,1.14,27.66-.14,42.34l-41.8-.06-.39-58.58-62.88-.5-.49-59.49c-7.33.27-46.46-2.36-47.84,1.76-2.33-2.24-5.18-.85-8.49-2.15l-2.51-.99c-.68-.27-.42-1.2-.48-1.69,4.71,1.23,9.94,2.03,14.16-2.2,2.28-2.28-1.34-5.47-1.83-7.65l-9.13-40.38-1.79-10.61c-.91-5.37-.34-9.45-.57-14.91l-.63-14.92c-.11-2.54-1.09-4.43-2.09-5.41-1.59-1.56-4.27-.7-5.88-.37-.02-1.18-.05-2.58-.15-3.56,5.95-.91,12.06-.22,18.08-.23Z"/>
        <path class="st36" d="M627.6,1333.73c-1.39.16-1.89-2.68-2.55-.88.54,3.87.22,6.73-1.34,8.43l-.96-22.27-1.64-29.37c-.6-10.68-2.49-18.07-2.15-26.08-1.87-32.99.12-80.45-42.04-91.26-26.7-6.85-52.26-4.93-78.63-10.14,2.85-5.05-29.56,1.13-25.53-8.01l155.06-.22-.22,179.82Z"/>
        <path class="st25" d="M627.59,1107.22c-2.19.53-.42-2.16-2.04-3.23-.67,4.3.03,8.6-1.55,13.65-1.68-9.03-2.17-18.7-2.13-28.24.06-15.54-10.59-24.15-25.46-24.6l-61.03-1.84c-22.86-.69-35.35-1.7-58.2-4.23,1.96-2.63,5.86-.56,7.33-3.38l143.01-.49c.75,18.49.38,35.44.09,52.35Z"/>
        <path class="st2" d="M474.27,1101.24c.77-.03.58-2.13,2.02-1.76.5.13,1.05.89,1.08,2.05.09,3.77-2.61-2.08-3.1-.29Z"/>
        <path class="st59" d="M462.6,1254.36c-3.99-32.01-7.27-64.21-7.77-96.45,1.61-.33,4.29-1.19,5.88.37,1,.98,1.98,2.87,2.09,5.41l.63,14.92c.23,5.46-.33,9.54.57,14.91l1.79,10.61,9.13,40.38c.49,2.18,4.1,5.37,1.83,7.65-4.22,4.23-9.45,3.42-14.16,2.2Z"/>
        <path class="st42" d="M498.29,1162.14c26.37,5.21,51.94,3.3,78.63,10.14,42.16,10.81,40.17,58.27,42.04,91.26-1.88,6.73-.6,12.97-.38,20.85l.92,31.92,2.69,36.58c.25,3.41,1.25,5.02,2.29,7.72,1.1,2.83.05,7.05.72,10.48.61,3.09-16.52,1.45-16.85,1.3-5.23-2.41-.37-47.48-22.56-56.25-.23-.09,1.11-6.28-22.33-3.85-2.41.25-8.36.45-9.29-3.06l-3.44-13.02c-9.11-34.43-20.74-45.13-46.74-66.34l-14.99-12.23c-20.95-17.09-12.44-32.75-16.41-56.52,8.05-1.71,19.1,1.93,25.7,1.02Z"/>
      </g>
    </g>
    <g>
      <path class="st10" d="M712.13,272.79c-17.2,59.58-61.12,96.17-112.77,129.59-27.13,17.55-53.94,32.37-82.17,47.32l-61.25,32.43c-6.6,3.49-9.71,9.48-10.49,17.05-2.64,25.75-2.46,50.84-2.18,75.92-.27,1.25-.41,2.06-1.28,2.31-1.62.47-3.62-.47-4.93.54l-31.55-.2c-2.05-6.47,14.17,1.33,18.1-3.83-.02-24.74-.03-48.44,2.08-72.09,1.51-16.97,9.42-30.05,24.63-38.46s30.13-15.18,46.33-22.09c80.38-34.28,174.2-79.33,210.28-163.71,1.1-2.56,3.01-4.69,5.2-4.79Z"/>
      <g>
        <path class="st65" d="M712.13,272.79c-2.19.09-4.11,2.23-5.2,4.79-36.08,84.38-129.9,129.44-210.28,163.71-16.2,6.91-31.13,13.68-46.33,22.09s-23.12,21.49-24.63,38.46c-2.11,23.65-2.1,47.35-2.08,72.09-3.93,5.16-20.15-2.64-18.1,3.83l-81.96.04c-1.93-24.29-1.91-48.92-2.46-74.17-.2-9.06-2.24-16.52-11.04-21.26l-101.25-54.54c-33.12-17.84-63.69-38.16-92.23-62.56-17.52-14.98-32.18-30.99-44.3-50.78-43.37-70.86-21.66-150.06,35.4-205.9C158.19,59.13,239.77,27.99,307.61,28.15l138.28.34c66.96.16,137.08,20.81,190.95,60.66,57.55,42.57,95.99,111.95,75.29,183.64Z"/>
        <path class="st24" d="M538.37,122.36l17.86,13.12c8.83,9.84,18.56,19.25,25.5,31.58,13.05,23.19,17.56,49.07,15.95,75.76-2.6,43-24.54,81.28-60.38,104.73-11.08-1.61-25.78,2.95-33.09,1.19,10.64-5.05,20.43-14.26,28.88-23.25,20.93-22.26,27.22-54.17,18.91-84.31l6.45-16.39c-18.88-76.13-103.43-117.04-176.29-114.05-12.36.51-23.38,2.96-34.84,4.92-30.1,5.14-58.73,15.52-84.13,32.78-52.63,35.77-81.77,105.98-41.96,161.17.94,1.23,2.48,2.45,2.63.23,14.12,24.05,38.32,38.77,64.04,47.92-.62,4.34-22.31-2.76-26.8-4.34-33.94-11.92-59.9-37.73-69.99-71.99-14.96-50.84,3.91-101.59,41.63-137.28,49.04-46.41,118.11-59.65,183.83-56.5,44.89,2.15,85.25,14.73,121.8,34.69Z"/>
        <path class="st32" d="M556.23,135.47l-17.86-13.12c-5.01-9.15-44.36-22.04-54.95-24.96-1.91-.52-3.62-2.86-4.95-3.36,6.42-3.5,11.71-2.93,18.41-2.52,7.59.46,17.64-3.25,25.1.89,15.32,8.5,25.38,23.78,37.12,36.85,4.42,4.92,7.52,9.16,9.58,15.2-7.68-3.26-8.32-10.06-12.44-8.98Z"/>
        <path class="st12" d="M551.99,241.19c-5.39-19.54-18.48-37.16-33.37-51.61-86.19-83.6-255.16-59.75-298.28,41.06-10.7,25.01-10.65,55.09,3.52,79.22-.14,2.22-1.68,1-2.63-.23-39.81-55.19-10.67-125.4,41.96-161.17,25.4-17.26,54.03-27.64,84.13-32.78,11.46-1.96,22.48-4.42,34.84-4.92,72.86-2.99,157.4,37.92,176.29,114.05l-6.45,16.39Z"/>
      </g>
    </g>
  </g>
  <path class="st13" d="M2823.06,609.5c.54.06.88.39,1,1-.83.89-1.83,1.22-3,1l2-2Z"/>
  <g>
    <path class="st44" d="M1047.76,619.97c-26.22,0-46.08-5.22-59.59-15.65-13.51-10.43-20.26-24.08-20.26-40.93,0-8.03,2.54-14.51,7.62-19.46,5.08-4.95,12.17-7.42,21.27-7.42.53,10.97,2.67,21.34,6.42,31.1,3.74,9.77,9.49,17.66,17.25,23.67,7.76,6.02,17.92,9.03,30.5,9.03,17.92,0,31.96-4.35,42.13-13.04,10.16-8.69,15.25-21.2,15.25-37.52,0-9.89-1.94-18.26-5.82-25.08-3.88-6.82-10.3-13.17-19.26-19.06-8.97-5.88-21.34-12.04-37.12-18.46-24.88-10.16-43.41-22.07-55.58-35.71-12.18-13.64-18.26-31.43-18.26-53.37,0-15.25,3.81-28.29,11.44-39.12,7.62-10.83,18.06-19.12,31.3-24.88,13.24-5.75,28.29-8.63,45.14-8.63,23.81,0,42.26,4.55,55.38,13.64,13.1,9.1,19.66,19.53,19.66,31.3,0,8.56-2.88,15.05-8.63,19.46-5.76,4.41-13.44,6.62-23.07,6.62,0-8.29-1.4-16.31-4.21-24.08-2.81-7.76-7.49-14.18-14.04-19.26-6.56-5.08-15.45-7.62-26.68-7.62-15.52,0-27.56,4.15-36.11,12.44-8.56,8.29-12.84,19.4-12.84,33.31,0,10.7,1.94,19.73,5.82,27.09,3.87,7.36,10.36,13.91,19.46,19.66,9.09,5.76,21.4,11.84,36.92,18.26,23.54,9.63,41.86,20.73,54.97,33.31,13.1,12.58,19.66,29.16,19.66,49.76,0,25.42-8.9,45.21-26.68,59.39-17.79,14.18-41.8,21.27-72.03,21.27Z"/>
    <path class="st22" d="M1272.87,619.97c-20.33,0-35.11-4.61-44.34-13.84-9.23-9.23-13.84-25.34-13.84-48.35v-134.02h-30.5v-16.05c4.82,0,10.16-1,16.05-3.01,5.88-2.01,10.97-5.28,15.25-9.83,4.55-4.82,8.29-10.7,11.24-17.66,2.94-6.95,5.35-15.51,7.22-25.68h18.46v49.36h52.57v22.87h-52.57v135.23c0,13.64,2.81,23.68,8.43,30.1,5.62,6.42,12.97,9.63,22.07,9.63,4.82,0,9.23-.26,13.24-.8,4.01-.53,8.16-1.2,12.44-2.01v17.66c-3.48,1.6-8.7,3.07-15.65,4.41-6.96,1.33-13.64,2.01-20.06,2.01Z"/>
    <path class="st17" d="M1442.6,619.97c-29.16,0-51.96-9.63-68.42-28.89s-24.68-46.28-24.68-81.06c0-37.45,7.76-65.67,23.27-84.67,15.51-18.99,37.45-28.49,65.81-28.49,25.94,0,46.35,8.03,61.19,24.08,14.85,16.05,22.27,40,22.27,71.83v18.46h-133.62c.53,29.16,5.82,50.36,15.85,63.6,10.03,13.24,24.68,19.86,43.94,19.86,13.91,0,25.74-2.87,35.51-8.63,9.76-5.75,17.05-12.24,21.87-19.46,1.87.8,3.61,2.41,5.22,4.81s2.41,5.35,2.41,8.83c0,5.35-2.55,11.1-7.62,17.25-5.08,6.16-12.84,11.44-23.27,15.85s-23.67,6.62-39.73,6.62ZM1481.52,489.56c0-21.4-3.28-38.58-9.83-51.56-6.56-12.97-17.86-19.46-33.91-19.46-14.72,0-26.15,6.09-34.31,18.26-8.16,12.18-12.91,29.76-14.25,52.77h92.29Z"/>
    <path class="st9" d="M1558.97,712.26v-16.85h3.21c9.09,0,16.85-1.67,23.27-5.02,6.42-3.35,9.63-11.3,9.63-23.88v-221.5c0-11.77-3.28-19.26-9.83-22.47-6.56-3.21-14.25-4.81-23.07-4.81h-5.22v-16.85h70.22l4.01,36.11h1.61c6.15-12.3,14.04-22.07,23.67-29.29,9.63-7.22,22.2-10.83,37.72-10.83,26.48,0,46.75,8.9,60.79,26.68,14.04,17.79,21.07,45.95,21.07,84.47s-7.02,67.15-21.07,85.07c-14.04,17.93-34.31,26.89-60.79,26.89-15.52,0-28.16-3.28-37.92-9.83-9.77-6.55-17.59-15.05-23.47-25.48h-1.61c.53,7.76.93,15.99,1.2,24.68.26,8.69.4,15.58.4,20.67v38.52c0,11.77,3.27,19.19,9.83,22.27,6.55,3.07,14.25,4.61,23.07,4.61h1.2v16.85h-107.94ZM1687.77,594.29c17.66,0,30.3-7.42,37.92-22.27,7.62-14.85,11.44-36.31,11.44-64.4s-3.81-49.96-11.44-64c-7.62-14.04-20.4-21.07-38.32-21.07-20.87,0-35.18,7.02-42.94,21.07-7.76,14.04-11.64,35.51-11.64,64.4s3.87,49.16,11.64,64c7.76,14.85,22.2,22.27,43.34,22.27Z"/>
    <path class="st23" d="M1814.97,615.96v-16.85h3.21c9.09,0,16.85-1.67,23.27-5.02,6.42-3.34,9.63-11.3,9.63-23.88v-215.08c0-11.77-3.28-19.26-9.83-22.47-6.56-3.21-14.25-4.82-23.07-4.82h-3.21v-16.85h73.83v88.28c0,4.81-.14,9.83-.4,15.05-.27,5.22-.67,11.57-1.2,19.06h2.01c12.3-24.34,31.96-36.52,58.99-36.52,23,0,40.59,6.22,52.77,18.66,12.17,12.44,18.26,32.44,18.26,59.99v94.7c0,12.58,2.87,20.53,8.63,23.88,5.75,3.35,13.17,5.02,22.27,5.02h1.2v16.85h-69.82v-138.44c0-17.39-3.28-30.9-9.83-40.53-6.56-9.63-17.99-14.45-34.31-14.45s-28.83,5.89-36.72,17.66c-7.89,11.77-11.84,27.56-11.84,47.35v84.67c0,11.77,3.27,19.2,9.83,22.27,6.55,3.08,14.25,4.61,23.07,4.61h1.2v16.85h-107.94Z"/>
    <path class="st38" d="M2154.45,619.97c-17.93,0-32.77-5.22-44.54-15.65-11.77-10.43-17.66-26.62-17.66-48.55s7.56-37.18,22.67-47.35c15.11-10.16,38.05-15.78,68.82-16.85l33.31-1.2v-24.08c0-9.63-.8-18.12-2.41-25.48-1.6-7.35-5.08-13.17-10.43-17.46-5.35-4.28-13.51-6.42-24.48-6.42-10.17,0-17.93,1.87-23.27,5.62-5.35,3.75-8.9,8.9-10.63,15.45-1.74,6.56-2.61,14.11-2.61,22.67-11.24,0-19.73-1.94-25.48-5.82-5.76-3.87-8.63-10.36-8.63-19.46s3.27-16.85,9.83-22.47c6.55-5.62,15.31-9.69,26.28-12.24,10.97-2.54,23-3.81,36.11-3.81,24.61,0,43,5.22,55.17,15.65,12.17,10.43,18.26,28.36,18.26,53.77v103.93c0,11.24,1.87,18.86,5.62,22.87,3.74,4.01,10.16,6.02,19.26,6.02h1.2v16.85h-54.17l-6.42-34.51h-3.21c-5.62,7.49-11.1,14.11-16.45,19.86-5.35,5.76-11.57,10.3-18.66,13.64-7.09,3.34-16.25,5.02-27.49,5.02ZM2163.68,595.09c16.31,0,29.29-5.02,38.92-15.05s14.45-23.61,14.45-40.73v-32.5l-25.68,1.2c-22.74,1.07-38.46,5.69-47.15,13.84-8.7,8.16-13.04,20.13-13.04,35.91,0,24.88,10.83,37.32,32.5,37.32Z"/>
    <path class="st72" d="M2318.96,615.96v-16.85h3.21c9.09,0,16.85-1.67,23.27-5.02,6.42-3.34,9.63-11.3,9.63-23.88v-125.2c0-11.77-3.15-19.26-9.43-22.47-6.29-3.21-13.84-4.81-22.67-4.81h-2.01v-16.85h65.01l5.22,32.5h2.01c8.29-14.98,17.59-24.81,27.89-29.49,10.29-4.68,21.87-7.02,34.71-7.02,21.13,0,37.65,6.22,49.56,18.66,11.9,12.44,17.86,32.44,17.86,59.99v94.7c0,12.58,2.74,20.53,8.23,23.88,5.48,3.35,12.77,5.02,21.87,5.02h2.01v16.85h-69.82v-138.44c0-17.39-3.28-30.9-9.83-40.53-6.56-9.63-18-14.45-34.31-14.45-12.04,0-21.61,3.01-28.69,9.03-7.09,6.02-12.18,13.98-15.25,23.88-3.08,9.9-4.61,20.6-4.61,32.1v84.67c0,11.77,3.14,19.2,9.43,22.27,6.28,3.08,13.84,4.61,22.67,4.61h2.01v16.85h-107.94Z"/>
    <path class="st52" d="M2583.4,693.4c18.19,0,33.1-3.48,44.74-10.43,11.64-6.96,21.07-16.39,28.29-28.29,7.22-11.91,12.97-25.35,17.25-40.33l-74.24-175.35c-3.48-8.29-7.16-13.91-11.04-16.85-3.88-2.94-9.7-4.41-17.46-4.41h-1.2v-16.85h96.3v16.85h-1.2c-16.05,0-24.08,6.42-24.08,19.26,0,4.55,1.07,9.5,3.21,14.85l29.29,71.43c2.67,6.16,5.28,12.91,7.82,20.26,2.54,7.36,4.88,14.38,7.02,21.07,2.14,6.69,3.61,12.31,4.41,16.85,1.87-7.76,4.34-15.78,7.42-24.08,3.07-8.29,5.95-16.45,8.63-24.48l26.88-78.25c2.41-6.42,3.61-12.17,3.61-17.25,0-13.1-8.83-19.66-26.48-19.66h-1.2v-16.85h83.46v16.85h-1.2c-7.76,0-13.64,2.01-17.66,6.02s-8.29,12.44-12.84,25.28l-60.99,168.53c-6.96,19.52-13.64,35.44-20.06,47.75-6.42,12.3-13.58,21.87-21.47,28.69-7.89,6.82-17.73,11.57-29.49,14.25-11.77,2.67-26.48,4.01-44.14,4.01h-3.61v-18.86Z"/>
    <path class="st60" d="M2816.53,426.16c25.41-8.29,38.12-20.33,38.12-36.11,0-4.01-1.47-7.08-4.41-9.23-2.95-2.14-6.36-4.14-10.23-6.02-3.88-1.87-7.29-4.41-10.23-7.62-2.95-3.21-4.41-7.89-4.41-14.04,0-7.76,2.47-13.64,7.42-17.66,4.95-4.01,11.17-6.02,18.66-6.02,8.29,0,15.51,3.01,21.67,9.03,6.15,6.02,9.23,14.65,9.23,25.88,0,17.12-5.02,32.77-15.05,46.95-10.03,14.18-26.95,24.75-50.76,31.7v-16.85Z"/>
    <path class="st28" d="M2978.65,619.97c-20.06,0-36.11-3.61-48.15-10.83-12.04-7.22-18.06-17.79-18.06-31.7,0-7.22,1.47-12.84,4.41-16.85,2.94-4.01,6.35-6.82,10.23-8.43,3.88-1.6,7.42-2.41,10.63-2.41,0,13.91,3.14,25.88,9.43,35.91,6.28,10.03,17.59,15.05,33.91,15.05,14.18,0,25.08-3.41,32.7-10.23,7.62-6.82,11.44-15.58,11.44-26.28,0-6.68-1.4-12.17-4.21-16.45-2.81-4.28-7.76-8.49-14.85-12.64-7.09-4.14-17.19-9.03-30.3-14.65-13.64-6.15-24.95-12.1-33.91-17.86-8.97-5.75-15.65-12.44-20.06-20.06-4.41-7.62-6.62-17.19-6.62-28.69,0-18.19,6.88-32.16,20.67-41.93,13.78-9.76,32.03-14.65,54.77-14.65,19.26,0,33.84,3.61,43.74,10.83,9.89,7.22,14.85,15.92,14.85,26.08,0,7.22-2.48,13.04-7.42,17.46-4.95,4.41-12.11,6.62-21.47,6.62,0-13.37-2.81-23.81-8.43-31.3-5.62-7.49-14.31-11.24-26.08-11.24-13.64,0-23.41,3.01-29.29,9.03-5.89,6.02-8.83,13.71-8.83,23.07,0,10.17,3.81,17.99,11.44,23.47,7.62,5.49,20.4,11.84,38.32,19.06,14.18,5.89,25.68,11.77,34.51,17.66,8.83,5.89,15.31,12.71,19.46,20.46,4.14,7.76,6.22,17.25,6.22,28.49,0,20.87-7.22,36.58-21.67,47.15-14.45,10.57-33.58,15.85-57.38,15.85Z"/>
    <path class="st62" d="M1008.84,1097.48v-16.85h9.23c8.83,0,16.52-1.54,23.07-4.61,6.55-3.07,9.83-10.5,9.83-22.27v-222.71h-38.52c-11.77,0-19.93,3.28-24.48,9.83-4.55,6.56-7.36,14.25-8.43,23.07l-2.01,17.25h-20.87l2.01-70.22h225.92l2.01,70.22h-20.87l-2.01-17.25c-1.07-8.83-3.88-16.51-8.43-23.07-4.55-6.55-12.84-9.83-24.88-9.83h-38.92v220.7c0,12.58,3.21,20.53,9.63,23.88,6.42,3.35,14.18,5.02,23.27,5.02h9.23v16.85h-124.79Z"/>
    <path class="st19" d="M1217.49,1097.48v-16.85h1.2c9.09,0,16.85-1.67,23.27-5.02,6.42-3.34,9.63-11.3,9.63-23.88v-125.2c0-11.77-3.28-19.26-9.83-22.47-6.56-3.21-14.25-4.82-23.07-4.82h-1.2v-16.85h61.8l7.62,39.73h2.01c3.47-8.03,7.22-15.38,11.24-22.07,4.01-6.68,9.36-11.97,16.05-15.85,6.68-3.88,15.91-5.82,27.69-5.82,14.71,0,25.61,2.55,32.7,7.62,7.08,5.08,10.63,12.31,10.63,21.67,0,8.29-2.88,15.12-8.63,20.46-5.76,5.35-15.32,8.03-28.69,8.03,0-10.97-1.61-18.92-4.82-23.88-3.21-4.95-8.7-7.42-16.45-7.42s-13.78,2.95-18.86,8.83c-5.08,5.89-9.1,13.38-12.04,22.47-2.95,9.1-5.08,18.53-6.42,28.29-1.34,9.77-2.01,18.53-2.01,26.28v63c0,11.77,3.27,19.2,9.83,22.27,6.55,3.08,14.25,4.61,23.07,4.61h11.24v16.85h-115.97Z"/>
    <path class="st37" d="M1518.04,1101.49c-29.16,0-51.96-9.63-68.42-28.89s-24.68-46.28-24.68-81.06c0-37.45,7.76-65.67,23.27-84.67,15.51-18.99,37.45-28.49,65.81-28.49,25.94,0,46.35,8.03,61.19,24.08,14.85,16.05,22.27,40,22.27,71.83v18.46h-133.62c.53,29.16,5.82,50.36,15.85,63.6,10.03,13.24,24.68,19.86,43.94,19.86,13.91,0,25.74-2.87,35.51-8.63,9.76-5.75,17.05-12.24,21.87-19.46,1.87.8,3.61,2.41,5.22,4.82s2.41,5.35,2.41,8.83c0,5.35-2.55,11.1-7.62,17.25-5.08,6.16-12.84,11.44-23.27,15.85s-23.67,6.62-39.73,6.62ZM1556.96,971.08c0-21.4-3.28-38.58-9.83-51.56-6.56-12.97-17.86-19.46-33.91-19.46-14.72,0-26.15,6.09-34.31,18.26-8.16,12.18-12.91,29.76-14.25,52.77h92.29Z"/>
    <path class="st45" d="M1709.44,1101.49c-17.93,0-32.77-5.22-44.54-15.65-11.77-10.43-17.66-26.62-17.66-48.55s7.56-37.18,22.67-47.35c15.11-10.16,38.05-15.78,68.82-16.85l33.31-1.2v-24.08c0-9.63-.8-18.12-2.41-25.48-1.6-7.35-5.08-13.17-10.43-17.46-5.35-4.28-13.51-6.42-24.48-6.42-10.17,0-17.93,1.88-23.27,5.62-5.35,3.75-8.9,8.9-10.63,15.45-1.74,6.56-2.61,14.11-2.61,22.67-11.24,0-19.73-1.94-25.48-5.82-5.76-3.88-8.63-10.36-8.63-19.46s3.27-16.85,9.83-22.47c6.55-5.62,15.31-9.69,26.28-12.24,10.97-2.54,23-3.81,36.11-3.81,24.61,0,43,5.22,55.17,15.65,12.17,10.43,18.26,28.36,18.26,53.77v103.93c0,11.24,1.87,18.86,5.62,22.87,3.74,4.01,10.16,6.02,19.26,6.02h1.2v16.85h-54.17l-6.42-34.51h-3.21c-5.62,7.49-11.1,14.11-16.45,19.86-5.35,5.76-11.57,10.3-18.66,13.64-7.09,3.34-16.25,5.02-27.49,5.02ZM1718.67,1076.62c16.31,0,29.29-5.02,38.92-15.05,9.63-10.03,14.45-23.61,14.45-40.73v-32.5l-25.68,1.2c-22.74,1.07-38.46,5.69-47.15,13.84-8.7,8.16-13.04,20.13-13.04,35.91,0,24.88,10.83,37.32,32.5,37.32Z"/>
    <path class="st11" d="M1946.99,1101.49c-20.06,0-36.11-3.61-48.15-10.83-12.04-7.22-18.06-17.79-18.06-31.7,0-7.22,1.47-12.84,4.41-16.85,2.94-4.01,6.35-6.82,10.23-8.43,3.87-1.61,7.42-2.41,10.63-2.41,0,13.91,3.14,25.88,9.43,35.91,6.28,10.03,17.59,15.05,33.91,15.05,14.18,0,25.08-3.41,32.7-10.23,7.62-6.82,11.44-15.58,11.44-26.28,0-6.68-1.4-12.17-4.21-16.45-2.81-4.28-7.76-8.49-14.85-12.64-7.09-4.14-17.19-9.03-30.3-14.65-13.64-6.15-24.95-12.1-33.91-17.86-8.97-5.75-15.65-12.44-20.06-20.06-4.41-7.62-6.62-17.19-6.62-28.69,0-18.19,6.88-32.16,20.67-41.93,13.77-9.76,32.03-14.65,54.77-14.65,19.26,0,33.84,3.61,43.74,10.83,9.89,7.22,14.85,15.92,14.85,26.08,0,7.22-2.48,13.04-7.42,17.46-4.95,4.41-12.11,6.62-21.47,6.62,0-13.37-2.81-23.81-8.43-31.3-5.62-7.49-14.31-11.24-26.08-11.24-13.64,0-23.41,3.01-29.29,9.03-5.89,6.02-8.83,13.71-8.83,23.07,0,10.17,3.81,17.99,11.44,23.47,7.62,5.49,20.4,11.84,38.32,19.06,14.18,5.89,25.68,11.78,34.51,17.66,8.83,5.89,15.31,12.71,19.46,20.46,4.14,7.76,6.22,17.25,6.22,28.49,0,20.87-7.22,36.58-21.67,47.15-14.45,10.57-33.58,15.85-57.38,15.85Z"/>
    <path class="st33" d="M2162.87,1101.49c-21.14,0-37.46-6.22-48.96-18.66-11.51-12.44-17.25-32.43-17.25-59.99v-96.31c0-11.77-3.28-19.26-9.83-22.47-6.56-3.21-14.25-4.82-23.07-4.82h-1.2v-16.85h71.83v138.44c0,17.39,2.94,30.9,8.83,40.53,5.88,9.63,16.99,14.45,33.31,14.45,17.66,0,30.5-5.95,38.52-17.86,8.03-11.9,12.04-27.62,12.04-47.15v-82.66c0-12.57-3.21-20.53-9.63-23.88-6.42-3.34-14.18-5.02-23.27-5.02h-1.2v-16.85h71.83v171.34c0,11.77,3.27,19.2,9.83,22.27,6.55,3.08,14.25,4.61,23.07,4.61h1.2v16.85h-63.8l-5.22-32.5h-2.01c-8.29,14.99-17.93,24.82-28.89,29.49-10.97,4.68-23.01,7.02-36.11,7.02Z"/>
    <path class="st21" d="M2331,1097.48v-16.85h1.2c9.09,0,16.85-1.67,23.27-5.02,6.42-3.34,9.63-11.3,9.63-23.88v-125.2c0-11.77-3.28-19.26-9.83-22.47-6.56-3.21-14.25-4.82-23.07-4.82h-1.2v-16.85h61.79l7.62,39.73h2.01c3.47-8.03,7.22-15.38,11.24-22.07,4.01-6.68,9.36-11.97,16.05-15.85,6.68-3.88,15.91-5.82,27.69-5.82,14.71,0,25.61,2.55,32.7,7.62,7.08,5.08,10.63,12.31,10.63,21.67,0,8.29-2.88,15.12-8.63,20.46-5.76,5.35-15.32,8.03-28.69,8.03,0-10.97-1.61-18.92-4.82-23.88-3.21-4.95-8.7-7.42-16.45-7.42s-13.78,2.95-18.86,8.83c-5.08,5.89-9.1,13.38-12.04,22.47-2.95,9.1-5.08,18.53-6.42,28.29-1.34,9.77-2.01,18.53-2.01,26.28v63c0,11.77,3.27,19.2,9.83,22.27,6.55,3.08,14.25,4.61,23.07,4.61h11.24v16.85h-115.97Z"/>
    <path class="st31" d="M2631.55,1101.49c-29.16,0-51.96-9.63-68.42-28.89s-24.68-46.28-24.68-81.06c0-37.45,7.75-65.67,23.27-84.67,15.51-18.99,37.45-28.49,65.81-28.49,25.95,0,46.35,8.03,61.19,24.08,14.85,16.05,22.27,40,22.27,71.83v18.46h-133.62c.53,29.16,5.82,50.36,15.85,63.6,10.03,13.24,24.68,19.86,43.94,19.86,13.91,0,25.74-2.87,35.51-8.63,9.76-5.75,17.05-12.24,21.87-19.46,1.87.8,3.61,2.41,5.22,4.82,1.61,2.41,2.41,5.35,2.41,8.83,0,5.35-2.55,11.1-7.62,17.25-5.08,6.16-12.84,11.44-23.27,15.85-10.43,4.41-23.67,6.62-39.73,6.62ZM2670.47,971.08c0-21.4-3.28-38.58-9.83-51.56-6.56-12.97-17.86-19.46-33.91-19.46-14.72,0-26.15,6.09-34.31,18.26-8.16,12.18-12.91,29.76-14.25,52.77h92.29Z"/>
    <path class="st57" d="M2824.95,1101.49c-20.06,0-36.11-3.61-48.15-10.83-12.04-7.22-18.06-17.79-18.06-31.7,0-7.22,1.47-12.84,4.41-16.85,2.94-4.01,6.35-6.82,10.23-8.43,3.88-1.61,7.42-2.41,10.63-2.41,0,13.91,3.14,25.88,9.43,35.91,6.28,10.03,17.59,15.05,33.91,15.05,14.18,0,25.08-3.41,32.7-10.23s11.44-15.58,11.44-26.28c0-6.68-1.4-12.17-4.21-16.45-2.81-4.28-7.76-8.49-14.85-12.64-7.09-4.14-17.19-9.03-30.3-14.65-13.64-6.15-24.95-12.1-33.91-17.86-8.97-5.75-15.65-12.44-20.06-20.06s-6.62-17.19-6.62-28.69c0-18.19,6.88-32.16,20.67-41.93,13.78-9.76,32.03-14.65,54.77-14.65,19.26,0,33.84,3.61,43.74,10.83,9.89,7.22,14.85,15.92,14.85,26.08,0,7.22-2.48,13.04-7.42,17.46-4.95,4.41-12.11,6.62-21.47,6.62,0-13.37-2.81-23.81-8.43-31.3-5.62-7.49-14.31-11.24-26.08-11.24-13.64,0-23.41,3.01-29.29,9.03-5.89,6.02-8.83,13.71-8.83,23.07,0,10.17,3.81,17.99,11.44,23.47,7.62,5.49,20.4,11.84,38.32,19.06,14.18,5.89,25.68,11.78,34.51,17.66,8.83,5.89,15.31,12.71,19.46,20.46,4.14,7.76,6.22,17.25,6.22,28.49,0,20.87-7.22,36.58-21.67,47.15-14.45,10.57-33.58,15.85-57.38,15.85Z"/>
  </g>
</svg>